<?xml version="1.0" encoding="UTF-8" standalone="no"?>
<!DOCTYPE svg PUBLIC "-//W3C//DTD SVG 1.1//EN" "http://www.w3.org/Graphics/SVG/1.1/DTD/svg11.dtd">
<svg xmlns="http://www.w3.org/2000/svg"
     viewBox="0 0 1182 1182"
     fill="currentColor">
    <g transform="matrix(1.69872,0,0,1.69872,-419.535,-213.164)">
        <g transform="matrix(0.14887,0,0,-0.14887,-163.52,1375.46)">
            <path d="M5193,7769C5143,7764 5058,7749 5003,7735C4758,7673 4567,7520 4455,7295C4370,7124 4375,7198 4375,6045C4375,4893 4370,4972 4455,4795C4556,4585 4740,4439 4989,4372C5071,4350 5105,4347 5230,4347C5355,4347 5388,4351 5473,4374C5651,4422 5784,4496 5900,4614L5964,4680L6033,4680C6137,4680 6244,4706 6350,4757C6432,4797 6457,4815 6540,4899C6594,4953 6651,5023 6673,5060C6717,5137 6758,5259 6767,5343C6771,5384 6779,5408 6792,5419C6803,5428 6839,5468 6871,5509C7058,5740 7115,6067 7020,6360C6976,6494 6871,6649 6773,6724L6724,6761L6721,6838C6717,6976 6683,7071 6594,7189C6537,7265 6467,7323 6384,7362C6320,7392 6209,7420 6150,7420C6118,7420 6108,7427 6057,7490C5951,7620 5807,7710 5641,7749C5540,7773 5326,7783 5193,7769ZM5655,7575C5810,7523 5917,7434 5989,7294L6011,7252L6133,7248C6274,7243 6330,7224 6412,7151C6513,7062 6564,6938 6565,6784L6565,6682L6636,6626C6760,6530 6852,6384 6886,6232C6909,6128 6901,5932 6870,5840C6827,5713 6762,5615 6659,5522L6613,5480L6607,5397C6593,5197 6483,5021 6308,4917C6200,4853 6087,4833 5940,4853L5885,4861L5840,4799C5721,4635 5538,4537 5306,4511C5160,4494 5029,4516 4895,4581C4722,4663 4602,4808 4554,4991C4540,5041 4537,5102 4536,5270L4535,5485L4815,5488C4969,5489 5105,5488 5116,5485C5128,5483 5180,5441 5231,5394C5283,5347 5339,5302 5357,5294C5376,5286 5423,5280 5468,5280L5547,5280L5558,5241C5575,5187 5645,5112 5705,5084C5812,5034 5950,5060 6032,5146C6131,5250 6137,5419 6046,5527C5919,5674 5680,5657 5584,5494L5558,5450L5419,5450L5327,5533C5276,5578 5226,5622 5216,5630C5200,5642 5140,5646 4866,5650L4535,5655L4534,5773L4533,5890L5097,5890C5578,5890 5666,5892 5698,5905C5722,5915 5784,5971 5875,6066L6015,6212L6046,6196C6191,6122 6383,6198 6434,6348C6498,6535 6366,6729 6174,6730C6141,6730 6093,6723 6068,6714C5935,6669 5852,6510 5893,6379L5907,6332L5635,6060L4535,6060L4534,6169L4532,6279L4759,6282C4953,6285 4990,6288 5012,6302C5026,6311 5117,6411 5214,6524L5390,6729L5423,6719C5546,6684 5699,6757 5751,6876C5811,7010 5762,7166 5637,7244C5576,7282 5469,7291 5393,7266C5238,7214 5159,7027 5232,6881L5258,6827L5103,6646C5013,6541 4936,6460 4918,6452C4897,6443 4839,6440 4712,6442L4535,6445L4536,6740C4538,7069 4543,7106 4604,7229C4669,7358 4784,7471 4913,7534C4999,7576 5113,7600 5260,7608C5443,7617 5558,7608 5655,7575ZM5567,7088C5629,7032 5629,6957 5569,6905C5511,6857 5458,6860 5403,6915C5375,6943 5370,6955 5370,6993C5370,7042 5402,7093 5444,7111C5478,7125 5540,7114 5567,7088ZM6251,6531C6282,6500 6290,6485 6290,6456C6290,6379 6240,6330 6161,6330C6111,6330 6065,6367 6049,6419C6027,6494 6089,6570 6174,6570C6205,6570 6219,6563 6251,6531ZM5876,5451C5988,5400 5962,5236 5839,5223C5786,5218 5753,5234 5723,5279C5669,5359 5722,5459 5825,5469C5831,5469 5853,5461 5876,5451Z" style="fill-rule:nonzero;"/>
        </g>
        <g transform="matrix(0.14887,0,0,-0.14887,-163.52,1375.46)">
            <path d="M3120,6675C3120,6394 3120,6394 3145,6343C3206,6221 3408,6129 3750,6066C3882,6042 4044,6023 4165,6018L4225,6015L4228,6308C4229,6468 4228,6600 4226,6600C4203,6600 3924,6634 3850,6646C3558,6692 3291,6795 3173,6905L3120,6956L3120,6675Z" style="fill-rule:nonzero;"/>
        </g>
        <path d="M465.612,367.996C465.612,367.996 455.953,289.489 505.211,246.69C505.211,246.69 321.293,251.017 307.137,307.287C295.555,353.328 446.371,368.682 465.612,367.996Z"/>
        <g transform="matrix(0.14887,0,0,-0.14887,-163.52,1375.46)">
            <path d="M3120,6203L3120,5664L3146,5611C3225,5454 3603,5315 4065,5275C4104,5272 4156,5267 4183,5264L4230,5258L4230,5859L4188,5864C4164,5867 4073,5879 3985,5890C3599,5940 3295,6039 3169,6157L3120,6203Z" style="fill-rule:nonzero;"/>
        </g>
        <g transform="matrix(0.14887,0,0,-0.14887,-163.52,1375.46)">
            <path d="M3120,5472L3120,4924L3146,4872C3191,4782 3300,4707 3475,4644C3649,4582 3800,4550 4038,4525C4187,4509 4480,4505 4480,4518C4480,4523 4470,4535 4459,4546C4423,4578 4352,4684 4320,4753C4289,4818 4246,4981 4235,5072L4229,5119L4172,5125C3682,5175 3329,5280 3178,5419L3120,5472Z" style="fill-rule:nonzero;"/>
        </g>
    </g>
</svg>
